<svg id="Capa_1" enable-background="new 0 0 512 512" height="512" viewBox="0 0 512 512" width="512" xmlns="http://www.w3.org/2000/svg"><g><g><g><g><path d="m471.215 353.064v56.578h-188.111v-77.099h112.63c10.085 0 19.429 3.193 27.063 8.643 10.559 7.52 23.045 11.878 36.015 11.878z" fill="#d3e1f4"/><path d="m471.215 353.064-.01 56.578h-34.758c1.834-4.43 2.813-9.231 2.813-14.176v-45.75c6.253 2.163 12.836 3.348 19.553 3.348z" fill="#b3cbea"/><path d="m471.215 399.34v52.065h-12.403c-12.97 0-25.466 4.347-36.026 11.878-7.634 5.439-16.977 8.643-27.052 8.643h-112.63v-72.586z" fill="#31a7fb"/><path d="m471.215 399.34v52.065h-12.403c-12.97 0-25.466 4.347-36.026 11.878-7.634 5.439-16.977 8.643-27.052 8.643h-112.63v-36.644h112.63c10.085 0 19.429-3.204 27.063-8.643.052-.031.103-.083.155-.113 9.055-6.418 14.958-16.287 16.102-27.186z" fill="#1c96f9"/><path d="m293.406 332.543v139.383h-190.542c-12.548 0-22.715-10.178-22.715-22.715v-93.953c0-12.548 10.168-22.715 22.715-22.715z" fill="#eff5f6"/><path d="m293.406 435.283v36.644h-190.542c-12.548 0-22.715-10.178-22.715-22.715v-36.644c0 12.537 10.178 22.715 22.715 22.715z" fill="#cbe5e7"/><path d="m463.403 460.568v-116.67c0-6.272 5.084-11.356 11.356-11.356h25.885c6.272 0 11.356 5.084 11.356 11.356v116.67c0 6.272-5.084 11.356-11.356 11.356h-25.885c-6.271 0-11.356-5.085-11.356-11.356z" fill="#deecf0"/><path d="m500.642 471.925h-25.881c-6.269 0-11.356-5.087-11.356-11.356v-35.681c0 6.268 5.088 11.356 11.356 11.356h25.881c6.268 0 11.356-5.088 11.356-11.356v35.681c0 6.268-5.088 11.356-11.356 11.356z" fill="#a9d3d8"/></g></g><g><g><path d="m237.786 156.34v139.033h-139.373v-139.033c0-10.086 3.194-19.429 8.633-27.063 7.531-10.559 11.878-23.045 11.878-36.015v-12.403h98.351v12.403c0 12.97 4.347 25.456 11.878 36.015 5.44 7.634 8.633 16.978 8.633 27.063z" fill="#d3e1f4"/><path d="m237.797 156.34v292.87c0 .134 0 .268-.01.391v-154.227h-36.644v-139.034c0-10.086-3.204-19.429-8.643-27.063-.031-.052-.072-.103-.103-.155-7.17-10.116-18.657-16.308-31.06-16.308h-45.75c2.163-6.253 3.338-12.836 3.338-19.553v-12.402l98.351.01v12.403c0 12.96 4.358 25.445 11.878 36.015 5.439 7.624 8.643 16.968 8.643 27.053z" fill="#b3cbea"/><path d="m98.409 368.197v81.013c0 12.544 10.169 22.712 22.712 22.712h93.958c12.544 0 22.712-10.169 22.712-22.712v-81.012h-139.382z" fill="#fb4a59"/><path d="m237.792 368.197v81.015c0 12.537-10.175 22.712-22.712 22.712h-36.646c12.537 0 22.712-10.175 22.712-22.712v-81.015z" fill="#f82f40"/><path d="m98.413 285.072h139.373v93.427h-139.373z" fill="#557983"/><path d="m201.143 285.072h36.644v93.427h-36.644z" fill="#3f5959"/><g><path d="m211.769 352.146h-77.537c-4.268 0-7.726-3.459-7.726-7.726 0-4.268 3.459-7.726 7.726-7.726h77.537c4.268 0 7.726 3.459 7.726 7.726s-3.459 7.726-7.726 7.726z" fill="#384848"/></g><path d="m226.435 88.671h-116.67c-6.272 0-11.356-5.084-11.356-11.356v-25.885c0-6.272 5.084-11.356 11.356-11.356h116.67c6.272 0 11.356 5.084 11.356 11.356v25.885c0 6.271-5.084 11.356-11.356 11.356z" fill="#deecf0"/><path d="m237.792 51.432v25.881c0 6.269-5.087 11.356-11.356 11.356h-35.681c6.269 0 11.356-5.088 11.356-11.356v-25.881c0-6.269-5.088-11.356-11.356-11.356h35.681c6.269 0 11.356 5.087 11.356 11.356z" fill="#a9d3d8"/></g><g><path d="m139.384 156.34v81.096h-139.384v-81.096c0-10.086 3.204-19.429 8.643-27.063 7.52-10.559 11.878-23.045 11.878-36.015v-12.403h98.341v12.403c0 12.97 4.358 25.456 11.878 36.015 5.44 7.634 8.644 16.978 8.644 27.063z" fill="#d3e1f4"/><path d="m139.384 156.34v81.096h-36.644v-81.096c0-10.086-3.204-19.429-8.643-27.063-.041-.052-.072-.103-.113-.155-7.17-10.116-18.646-16.308-31.06-16.308h-45.751c2.174-6.253 3.348-12.836 3.348-19.553v-12.402l98.341.01v12.403c0 12.96 4.358 25.445 11.878 36.015 5.44 7.624 8.644 16.968 8.644 27.053z" fill="#b3cbea"/><path d="m0 227.134h139.384v68.239h-139.384z" fill="#68dbf9"/><path d="m0 368.197h139.384v81.014c0 12.548-10.168 22.716-22.716 22.716h-93.952c-12.548-.001-22.716-10.169-22.716-22.716z" fill="#68dbf9"/><path d="m102.74 227.134h36.644v68.239h-36.644z" fill="#24d1f8"/><path d="m102.74 368.197h36.644v81.014c0 12.537-10.178 22.716-22.716 22.716h-36.644c12.537 0 22.716-10.178 22.716-22.716z" fill="#24d1f8"/><path d="m0 285.072h139.383v93.427h-139.383z" fill="#eff5f6"/><path d="m102.74 285.072h36.644v93.427h-36.644z" fill="#cbe5e7"/><path d="m128.026 88.671h-116.67c-6.272 0-11.356-5.085-11.356-11.357v-25.884c0-6.272 5.084-11.356 11.356-11.356h116.67c6.272 0 11.356 5.084 11.356 11.356v25.885c0 6.271-5.084 11.356-11.356 11.356z" fill="#deecf0"/><path d="m139.383 51.432v25.881c0 6.269-5.087 11.356-11.356 11.356h-35.68c6.269 0 11.356-5.088 11.356-11.356v-25.881c0-6.269-5.088-11.356-11.356-11.356h35.681c6.268 0 11.355 5.087 11.355 11.356z" fill="#a9d3d8"/></g></g></g><g><path d="m44.456 320.038h-14.387c-4.268 0-7.726-3.459-7.726-7.726s3.459-7.726 7.726-7.726h14.386c4.268 0 7.726 3.459 7.726 7.726s-3.458 7.726-7.725 7.726z" fill="#a9d3d8"/></g><g><path d="m113.701 352.146h-72.386c-4.268 0-7.726-3.459-7.726-7.726 0-4.268 3.459-7.726 7.726-7.726h72.386c4.268 0 7.726 3.459 7.726 7.726.001 4.267-3.458 7.726-7.726 7.726z" fill="#a9d3d8"/></g></g></svg>