<svg id="Capa_1" enable-background="new 0 0 512 512" height="512" viewBox="0 0 512 512" width="512" xmlns="http://www.w3.org/2000/svg"><g><g><g><path d="m448.615 10.559v434.36h-346.69v-434.36c0-5.83 4.718-10.559 10.559-10.559h325.571c5.842 0 10.56 4.729 10.56 10.559z" fill="#eff5f6"/><path d="m448.615 10.559v434.36h-34.81v-434.36c0-5.83-4.729-10.559-10.56-10.559h34.81c5.842 0 10.56 4.729 10.56 10.559z" fill="#cbe5e7"/><path d="m101.925 434.618v52.813c0 5.838 4.719 10.557 10.557 10.557h325.574c5.838 0 10.557-4.719 10.557-10.557v-52.813z" fill="#1475cb"/><path d="m413.806 434.618v52.813c0 5.838-4.73 10.557-10.557 10.557h34.808c5.838 0 10.557-4.719 10.557-10.557v-52.813z" fill="#0e6ac2"/></g><g><path d="m140.464 335.307v37.55h-77.079v-37.55c0-6.171 2.699-12.043 7.397-16.05l17.421-14.897c7.902-6.748 19.543-6.748 27.444 0l17.421 14.897c4.697 4.007 7.396 9.879 7.396 16.05z" fill="#c9f0fd"/><path d="m140.464 335.307v37.55h-30.658v-37.55c0-6.171-2.699-12.043-7.397-16.05l-15.814-13.527 1.607-1.37c7.902-6.748 19.543-6.748 27.444 0l17.431 14.897c4.688 4.007 7.387 9.879 7.387 16.05z" fill="#9ce6fb"/><path d="m140.466 362.559v138.883c0 5.838-4.73 10.557-10.557 10.557h-55.966c-5.838 0-10.557-4.719-10.557-10.557v-138.883z" fill="#fc9085"/><path d="m140.466 362.559v138.883c0 5.838-4.73 10.557-10.557 10.557h-30.66c5.828 0 10.557-4.719 10.557-10.557v-138.883z" fill="#fc7c6a"/><g><path d="m110.902 308.808h-17.955c-11.213 0-19.809-9.958-18.173-21.051l10.998-74.551c1.182-8.01 8.056-13.945 16.153-13.945 8.097 0 14.971 5.934 16.153 13.945l10.998 74.551c1.636 11.093-6.961 21.051-18.174 21.051z" fill="#dff6fd"/><path d="m110.905 308.811h-17.958c-1.351 0-2.671-.148-3.938-.422 9.206-2.006 15.667-10.885 14.231-20.629l-11.001-74.557c-.422-2.851-1.573-5.448-3.231-7.601 2.998-3.885 7.707-6.345 12.912-6.345 4.054 0 7.791 1.489 10.674 3.97 2.872 2.492 4.888 5.975 5.479 9.977l11.001 74.557c1.637 11.084-6.957 21.05-18.169 21.05z" fill="#c9f0fd"/></g></g></g><g><g><g><path d="m357.829 210.9c-1.977 0-3.955-.754-5.463-2.263l-8.997-8.996c-3.017-3.017-3.018-7.909 0-10.927 3.017-3.017 7.91-3.018 10.927 0l3.533 3.533 20.27-20.27c3.017-3.017 7.91-3.017 10.927 0 3.018 3.017 3.018 7.91 0 10.927l-25.734 25.734c-1.508 1.508-3.485 2.262-5.463 2.262z" fill="#24d1f8"/></g><g><path d="m232.569 181.395h-65.593c-4.267 0-7.726-3.459-7.726-7.726s3.459-7.726 7.726-7.726h65.593c4.267 0 7.726 3.459 7.726 7.726s-3.459 7.726-7.726 7.726z" fill="#fb4a59"/></g><g><path d="m305.249 209.416h-138.274c-4.267 0-7.726-3.459-7.726-7.726s3.459-7.726 7.726-7.726h138.273c4.267 0 7.726 3.459 7.726 7.726s-3.458 7.726-7.725 7.726z" fill="#90bac4"/></g></g><g><g><path d="m357.829 292.865c-1.977 0-3.955-.754-5.463-2.263l-8.997-8.996c-3.017-3.017-3.018-7.909 0-10.927 3.017-3.017 7.91-3.018 10.927 0l3.533 3.533 20.27-20.27c3.017-3.017 7.91-3.017 10.927 0 3.018 3.017 3.018 7.91 0 10.927l-25.734 25.734c-1.508 1.507-3.485 2.262-5.463 2.262z" fill="#24d1f8"/></g><g><path d="m232.569 263.359h-65.593c-4.267 0-7.726-3.459-7.726-7.726s3.459-7.726 7.726-7.726h65.593c4.267 0 7.726 3.459 7.726 7.726s-3.459 7.726-7.726 7.726z" fill="#90bac4"/></g><g><path d="m305.249 291.38h-138.274c-4.267 0-7.726-3.459-7.726-7.726s3.459-7.726 7.726-7.726h138.273c4.267 0 7.726 3.459 7.726 7.726s-3.458 7.726-7.725 7.726z" fill="#90bac4"/></g></g><g><g><path d="m357.829 374.829c-1.977 0-3.955-.754-5.463-2.263l-8.997-8.996c-3.017-3.017-3.018-7.909 0-10.927 3.017-3.017 7.91-3.018 10.927 0l3.533 3.533 20.27-20.27c3.017-3.017 7.91-3.017 10.927 0 3.018 3.017 3.018 7.91 0 10.927l-25.734 25.734c-1.508 1.507-3.485 2.262-5.463 2.262z" fill="#24d1f8"/></g><g><path d="m232.569 345.323h-65.593c-4.267 0-7.726-3.459-7.726-7.726s3.459-7.726 7.726-7.726h65.593c4.267 0 7.726 3.459 7.726 7.726s-3.459 7.726-7.726 7.726z" fill="#90bac4"/></g><g><path d="m305.249 373.344h-138.274c-4.267 0-7.726-3.459-7.726-7.726s3.459-7.726 7.726-7.726h138.273c4.267 0 7.726 3.459 7.726 7.726s-3.458 7.726-7.725 7.726z" fill="#90bac4"/></g></g></g><g><circle cx="199.771" cy="86.42" fill="#fb4a59" r="38.92"/><path d="m238.692 86.417c0 21.5-17.431 38.921-38.921 38.921-4.883 0-9.56-.896-13.866-2.545 14.66-5.584 25.065-19.759 25.065-36.376 0-16.607-10.405-30.792-25.065-36.376 4.306-1.648 8.983-2.545 13.866-2.545 21.491.001 38.921 17.432 38.921 38.921z" fill="#f82f40"/></g><g><g><path d="m375.906 101.362h-9.707c-4.267 0-7.726-3.459-7.726-7.726s3.459-7.726 7.726-7.726h9.707c4.267 0 7.726 3.459 7.726 7.726s-3.459 7.726-7.726 7.726z" fill="#1475cb"/></g><g><path d="m375.906 76.252h-9.707c-4.267 0-7.726-3.459-7.726-7.726s3.459-7.726 7.726-7.726h9.707c4.267 0 7.726 3.459 7.726 7.726s-3.459 7.726-7.726 7.726z" fill="#1475cb"/></g></g></g></svg>